<?xml version="1.0" encoding="iso-8859-1"?>
<!-- Generator: Adobe Illustrator 20.1.0, SVG Export Plug-In . SVG Version: 6.00 Build 0)  -->
<svg xmlns="http://www.w3.org/2000/svg" xmlns:xlink="http://www.w3.org/1999/xlink" version="1.1" id="&#1057;&#1083;&#1086;&#1081;_1" x="0px" y="0px" viewBox="0 0 64 64" style="enable-background:new 0 0 64 64;" xml:space="preserve">
<linearGradient id="SVGID_1__43598" gradientUnits="userSpaceOnUse" x1="43" y1="33.5833" x2="43" y2="36.8376" spreadMethod="reflect">
	<stop offset="0" style="stop-color:#6DC7FF"/>
	<stop offset="1" style="stop-color:#E6ABFF"/>
</linearGradient>
<rect x="30" y="34" style="fill:url(#SVGID_1__43598);" width="26" height="2"/>
<linearGradient id="SVGID_2__43598" gradientUnits="userSpaceOnUse" x1="28" y1="5.6667" x2="28" y2="58.718" spreadMethod="reflect">
	<stop offset="0" style="stop-color:#1A6DFF"/>
	<stop offset="1" style="stop-color:#C822FF"/>
</linearGradient>
<rect x="22" y="16" style="fill:url(#SVGID_2__43598);" width="12" height="2"/>
<linearGradient id="SVGID_3__43598" gradientUnits="userSpaceOnUse" x1="28" y1="5.6667" x2="28" y2="58.718" spreadMethod="reflect">
	<stop offset="0" style="stop-color:#1A6DFF"/>
	<stop offset="1" style="stop-color:#C822FF"/>
</linearGradient>
<rect x="22" y="22" style="fill:url(#SVGID_3__43598);" width="12" height="2"/>
<linearGradient id="SVGID_4__43598" gradientUnits="userSpaceOnUse" x1="32" y1="5.6667" x2="32" y2="58.718" spreadMethod="reflect">
	<stop offset="0" style="stop-color:#1A6DFF"/>
	<stop offset="1" style="stop-color:#C822FF"/>
</linearGradient>
<path style="fill:url(#SVGID_4__43598);" d="M55,28h-5v-8c0-2.206-1.794-4-4-4h-8v-1v-0.042v-3.959C38,8.242,35.757,6,33,6H23  c-2.757,0-5,2.242-5,4.999v3.959V16h-8c-2.206,0-4,1.794-4,4v30.999C6,54.859,9.141,58,13,58h30c3.859,0,7-3.141,7-7.001V50h5  c1.654,0,3-1.346,3-3V31C58,29.346,56.654,28,55,28z M56,31v1H30v-1c0-0.552,0.448-1,1-1h24C55.552,30,56,30.448,56,31z M30,34h26v2  H30V34z M46,18c1.103,0,2,0.897,2,2s-0.897,2-2,2h-8v-4H46z M23,8h10c1.654,0,3,1.346,3,2.999v0.004  C35.172,10.382,34.155,10,33.042,10H22.958c-1.113,0-2.13,0.382-2.958,1.003v-0.004C20,9.346,21.346,8,23,8z M19,33.999  c1.654,0,3,1.346,3,3s-1.346,3-3,3s-3-1.346-3-3S17.346,33.999,19,33.999z M10,18h8v4h-8c-1.103,0-2-0.897-2-2S8.897,18,10,18z   M48,50.999C48,53.757,45.757,56,43,56H13c-2.757,0-5-2.243-5-5.001V23.444C8.591,23.788,9.268,24,10,24h8v8.1  c-2.279,0.465-4,2.484-4,4.899c0,2.757,2.243,5,5,5s5-2.243,5-5c0-2.415-1.721-4.434-4-4.899V16v-1.042  C20,13.327,21.327,12,22.958,12h10.084C34.673,12,36,13.327,36,14.958V15v1v2v4v1v1h10c0.732,0,1.409-0.212,2-0.556V28H31  c-1.654,0-3,1.346-3,3v16c0,1.654,1.346,3,3,3h17V50.999z M55,48H31c-0.552,0-1-0.448-1-1v-9h26v9C56,47.552,55.552,48,55,48z"/>
<linearGradient id="SVGID_5__43598" gradientUnits="userSpaceOnUse" x1="36" y1="5.6667" x2="36" y2="58.718" spreadMethod="reflect">
	<stop offset="0" style="stop-color:#1A6DFF"/>
	<stop offset="1" style="stop-color:#C822FF"/>
</linearGradient>
<rect x="32" y="44" style="fill:url(#SVGID_5__43598);" width="8" height="2"/>
<linearGradient id="SVGID_6__43598" gradientUnits="userSpaceOnUse" x1="51" y1="5.6667" x2="51" y2="58.718" spreadMethod="reflect">
	<stop offset="0" style="stop-color:#1A6DFF"/>
	<stop offset="1" style="stop-color:#C822FF"/>
</linearGradient>
<rect x="48" y="44" style="fill:url(#SVGID_6__43598);" width="6" height="2"/>
<linearGradient id="SVGID_7__43598" gradientUnits="userSpaceOnUse" x1="36" y1="5.6667" x2="36" y2="58.718" spreadMethod="reflect">
	<stop offset="0" style="stop-color:#1A6DFF"/>
	<stop offset="1" style="stop-color:#C822FF"/>
</linearGradient>
<rect x="32" y="40" style="fill:url(#SVGID_7__43598);" width="8" height="2"/>
</svg>
